<?xml version="1.0" standalone="no"?>
<!DOCTYPE svg PUBLIC "-//W3C//DTD SVG 20010904//EN"
 "http://www.w3.org/TR/2001/REC-SVG-20010904/DTD/svg10.dtd">
<svg version="1.0" xmlns="http://www.w3.org/2000/svg"
 width="185.000000pt" height="50.000000pt" viewBox="0 0 185.000000 50.000000"
 preserveAspectRatio="xMidYMid meet">

<g transform="translate(0.000000,50.000000) scale(0.100000,-0.100000)"
fill="#000000" stroke="none">
<path d="M110 451 c0 -5 -13 -12 -30 -16 -32 -7 -42 -38 -15 -49 22 -8 22
-214 0 -222 -8 -4 -15 -15 -15 -25 0 -14 7 -19 25 -19 14 0 28 -7 31 -15 8
-19 30 -19 38 0 7 19 35 19 42 0 8 -19 30 -19 38 0 3 8 17 15 31 15 39 0 65
18 81 56 12 30 12 39 -1 70 -11 27 -12 40 -4 50 6 7 11 30 11 51 0 28 -7 43
-27 60 -14 13 -33 23 -42 23 -8 0 -28 8 -45 18 -28 16 -30 16 -39 0 -12 -22
-38 -23 -45 -3 -7 16 -34 21 -34 6z m158 -73 c16 -16 15 -53 -2 -67 -8 -7 -37
-11 -68 -9 -50 3 -53 5 -56 31 -6 49 3 57 61 57 29 0 58 -5 65 -12z m10 -165
c4 -40 -21 -55 -86 -51 l-47 3 -3 43 -3 43 68 -3 68 -3 3 -32z"/>
</g>
</svg>
