<?xml version="1.0" standalone="no"?>
<!DOCTYPE svg PUBLIC "-//W3C//DTD SVG 20010904//EN"
 "http://www.w3.org/TR/2001/REC-SVG-20010904/DTD/svg10.dtd">
<svg version="1.0" xmlns="http://www.w3.org/2000/svg"
 width="185.000000pt" height="50.000000pt" viewBox="0 0 185.000000 50.000000"
 preserveAspectRatio="xMidYMid meet">

<g transform="translate(0.000000,50.000000) scale(0.100000,-0.100000)"
fill="#000000" stroke="none">
<path d="M200 377 c-43 -21 -40 -100 5 -139 14 -12 25 -31 25 -42 -1 -19 -2
-19 -13 -4 -9 12 -17 14 -30 7 -22 -13 -22 -28 1 -45 25 -20 46 -17 71 10 29
31 25 77 -6 91 -23 10 -33 55 -13 55 6 0 10 -7 10 -16 0 -10 7 -14 23 -12 19
3 22 8 19 38 -6 62 -40 83 -92 57z"/>
<path d="M304 375 c-10 -25 6 -85 21 -85 11 0 15 -11 15 -37 0 -61 12 -113 25
-113 12 0 25 63 25 121 0 23 5 29 21 29 18 0 20 5 17 46 l-3 46 -58 4 c-45 3
-59 0 -63 -11z"/>
<path d="M531 381 c-11 -7 -13 -28 -8 -97 10 -142 14 -151 71 -140 46 9 52 43
9 48 -33 4 -38 32 -6 36 39 6 41 52 2 52 -10 0 -19 5 -19 10 0 6 11 10 25 10
14 0 28 7 30 15 16 51 16 51 40 5 l23 -45 -19 -50 c-34 -88 -16 -118 25 -40
17 34 21 36 30 21 49 -83 81 -80 45 4 -28 66 -28 67 6 118 15 23 26 44 24 46
-2 2 -16 6 -32 10 -20 5 -29 2 -32 -9 -16 -50 -18 -51 -28 -22 -10 26 -14 27
-78 27 -37 0 -73 2 -81 5 -7 3 -19 1 -27 -4z"/>
<path d="M850 379 c-35 -14 -40 -26 -40 -97 0 -73 19 -127 49 -137 30 -9 61
11 61 40 0 29 -12 32 -30 10 -18 -22 -25 -6 -25 56 0 33 5 54 13 57 6 2 12 -3
12 -12 0 -21 18 -30 35 -16 16 13 20 58 7 75 -7 9 -49 36 -54 34 -2 0 -14 -5
-28 -10z"/>
<path d="M956 382 c-11 -18 6 -222 20 -233 21 -17 34 -1 34 42 0 21 5 39 10
39 6 0 10 -20 10 -45 0 -34 4 -45 15 -45 23 0 32 35 36 145 l4 100 -25 0 c-23
0 -25 -4 -28 -47 -2 -27 -7 -48 -12 -48 -5 0 -10 21 -12 48 -3 39 -6 47 -25
50 -11 2 -24 -1 -27 -6z"/>
<path d="M1153 380 c-13 -5 -25 -21 -28 -37 -4 -15 -10 -47 -16 -70 -10 -47
-12 -117 -3 -126 11 -11 34 5 34 24 0 15 26 39 43 39 3 0 8 -16 11 -35 5 -23
13 -35 23 -35 14 0 15 13 9 106 -9 140 -18 156 -73 134z m27 -100 c0 -20 -5
-30 -15 -30 -16 0 -19 17 -9 44 10 26 24 18 24 -14z"/>
<path d="M1349 353 l0 -38 -16 33 c-18 35 -51 43 -73 17 -14 -17 -6 -158 12
-204 9 -25 10 -25 21 -6 6 11 12 31 13 45 1 14 2 36 3 50 l2 25 11 -25 c28
-68 50 -110 58 -110 4 0 11 52 15 116 6 94 5 118 -6 125 -28 17 -39 9 -40 -28z"/>
<path d="M1439 373 c-10 -11 -13 -39 -11 -96 4 -108 33 -162 69 -126 8 8 13 8
17 0 14 -23 26 -10 26 29 0 22 5 40 10 40 6 0 10 9 10 20 0 16 -7 20 -35 20
-36 0 -46 -15 -23 -38 9 -9 9 -15 0 -24 -19 -19 -31 7 -27 56 2 23 4 44 4 49
2 15 31 6 31 -9 0 -11 5 -14 16 -10 9 3 20 6 25 6 15 0 -1 73 -19 88 -23 17
-77 15 -93 -5z"/>
<path d="M1584 376 c-8 -21 2 -211 11 -227 9 -14 75 -4 87 13 13 21 9 27 -19
30 -35 4 -44 35 -11 40 31 4 32 42 1 46 -33 5 -28 22 6 22 30 0 41 14 41 56 0
21 -4 24 -39 24 -22 0 -46 3 -55 6 -10 4 -18 0 -22 -10z"/>
</g>
</svg>
