<?xml version="1.0" standalone="no"?>
<!DOCTYPE svg PUBLIC "-//W3C//DTD SVG 20010904//EN"
 "http://www.w3.org/TR/2001/REC-SVG-20010904/DTD/svg10.dtd">
<svg version="1.0" xmlns="http://www.w3.org/2000/svg"
 width="185.000000pt" height="50.000000pt" viewBox="0 0 185.000000 50.000000"
 preserveAspectRatio="xMidYMid meet">

<g transform="translate(0.000000,50.000000) scale(0.100000,-0.100000)"
fill="#000000" stroke="none">
<path d="M100 450 c-8 -5 -23 -11 -32 -14 -22 -7 -24 -44 -3 -52 22 -9 22
-196 0 -214 -20 -17 -19 -49 3 -56 9 -3 27 -10 38 -16 15 -7 27 -6 42 3 17 10
23 10 36 -1 14 -11 22 -10 54 5 20 10 48 23 62 29 40 19 54 59 40 111 -9 31
-9 48 -1 63 6 11 11 30 11 42 0 31 -62 90 -94 90 -14 0 -26 5 -26 10 0 14 -26
13 -50 -2 -15 -10 -22 -10 -32 0 -14 14 -27 14 -48 2z m161 -70 c11 -6 19 -21
19 -35 0 -31 -26 -45 -83 -45 -32 0 -47 5 -51 16 -9 25 -7 49 6 62 15 15 82
16 109 2z m13 -152 c21 -34 -4 -53 -70 -53 -54 0 -59 2 -62 23 -7 45 3 53 64
50 41 -2 60 -8 68 -20z"/>
<path d="M408 368 c-33 -27 -28 -89 8 -111 8 -4 13 -18 13 -30 -1 -16 -3 -17
-6 -5 -2 10 -10 15 -19 11 -18 -7 -18 -27 1 -43 13 -11 20 -11 40 0 33 18 36
79 5 87 -20 5 -29 43 -10 43 6 0 10 -7 10 -16 0 -9 7 -14 18 -12 12 3 16 12
14 33 -6 52 -39 71 -74 43z"/>
<path d="M496 373 c-11 -12 -6 -51 9 -67 8 -8 15 -26 15 -39 0 -38 12 -87 21
-87 4 0 11 27 15 60 4 41 11 60 20 60 9 0 14 12 14 38 0 38 0 38 -44 40 -24 1
-46 -1 -50 -5z"/>
<path d="M672 362 c-8 -21 7 -165 18 -176 12 -12 61 3 67 21 2 6 -6 13 -19 15
-25 3 -32 33 -8 33 8 0 16 8 18 18 2 12 -3 17 -17 17 -12 0 -21 5 -21 10 0 6
11 10 24 10 17 0 27 7 32 22 6 20 8 20 24 -12 16 -32 17 -38 3 -72 -8 -20 -13
-45 -11 -55 3 -14 7 -12 23 15 11 17 23 32 27 32 4 0 15 -13 25 -30 17 -29 33
-39 33 -21 0 5 -9 29 -20 55 l-21 46 26 37 c23 35 24 38 8 45 -28 10 -31 9
-38 -12 -8 -24 -22 -26 -27 -3 -2 13 -16 16 -72 17 -49 1 -70 -3 -74 -12z"/>
<path d="M923 370 c-20 -8 -23 -16 -23 -69 0 -68 11 -106 34 -114 21 -8 43 1
50 20 8 21 -3 38 -17 24 -21 -21 -27 -11 -27 39 0 28 5 50 10 50 6 0 10 -7 10
-16 0 -31 35 -10 38 24 3 27 -1 34 -23 42 -14 6 -27 10 -28 9 -1 0 -12 -4 -24
-9z"/>
<path d="M1015 368 c-3 -7 -2 -52 2 -98 6 -65 11 -85 23 -85 9 0 17 13 21 35
l6 35 4 -35 c2 -23 9 -35 19 -35 12 0 17 20 22 90 4 50 3 94 -2 99 -18 18 -40
-3 -41 -41 l-2 -38 -6 40 c-6 40 -35 61 -46 33z"/>
<path d="M1168 368 c-21 -16 -38 -79 -38 -140 0 -51 15 -63 29 -24 15 37 39
40 46 5 12 -53 30 -27 27 37 -7 121 -24 153 -64 122z m22 -73 c0 -14 -4 -25
-10 -25 -11 0 -14 33 -3 43 11 11 13 8 13 -18z"/>
<path d="M1271 369 c-22 -9 -23 -11 -16 -92 10 -115 21 -123 41 -27 l7 35 11
-30 c18 -49 38 -79 45 -67 3 6 6 50 6 98 0 75 -3 89 -17 92 -12 2 -18 -5 -20
-25 l-4 -28 -12 28 c-6 15 -13 27 -14 26 -2 0 -14 -5 -27 -10z"/>
<path d="M1402 368 c-13 -16 -15 -30 -13 -94 1 -61 29 -106 53 -86 11 9 17 9
26 0 9 -9 12 -5 12 18 0 17 5 35 12 42 14 14 10 19 -22 24 -22 3 -25 0 -22
-24 1 -16 -2 -28 -8 -28 -12 0 -14 87 -1 94 5 3 12 -1 15 -9 4 -12 10 -13 25
-6 13 8 17 18 13 38 -3 15 -10 31 -16 35 -18 12 -63 9 -74 -4z"/>
<path d="M1514 365 c-9 -23 4 -167 16 -179 12 -12 61 3 67 21 2 6 -6 13 -19
15 -13 2 -23 10 -23 18 0 9 7 14 18 12 11 -2 17 4 17 18 0 11 -7 20 -15 20
-24 0 -17 18 8 22 16 2 23 11 25 31 3 24 0 27 -27 27 -16 0 -36 3 -45 6 -10 4
-18 -1 -22 -11z"/>
</g>
</svg>
